<?xml version="1.0" standalone="no"?>
<!DOCTYPE svg PUBLIC "-//W3C//DTD SVG 20010904//EN"
 "http://www.w3.org/TR/2001/REC-SVG-20010904/DTD/svg10.dtd">
<svg version="1.0" xmlns="http://www.w3.org/2000/svg"
 width="1024.000000pt" height="1024.000000pt" viewBox="0 0 1024.000000 1024.000000"
 preserveAspectRatio="xMidYMid meet">

<g transform="translate(0.000000,1024.000000) scale(0.100000,-0.100000)"
fill="#000000" stroke="none">
<path d="M2186 6644 c-14 -13 -16 -49 -16 -233 0 -198 2 -219 18 -234 23 -21
56 -22 76 -1 14 13 16 49 16 233 0 198 -2 219 -18 234 -23 21 -56 22 -76 1z
m74 -13 c6 -12 10 -104 10 -228 0 -219 -3 -233 -45 -233 -43 0 -45 13 -45 240
0 155 3 219 12 228 18 18 56 14 68 -7z"/>
<path d="M1532 6334 c-12 -8 -22 -26 -22 -39 0 -34 178 -269 207 -273 25 -4
63 30 63 56 0 18 -158 238 -187 260 -22 16 -34 15 -61 -4z m48 -4 c20 -10 156
-184 179 -228 10 -19 10 -28 -4 -48 -29 -44 -52 -28 -147 101 -88 121 -103
156 -70 174 21 13 20 13 42 1z"/>
<path d="M2812 6298 c-126 -172 -146 -207 -136 -235 11 -33 55 -53 77 -35 25
21 177 250 177 267 0 33 -20 55 -50 55 -24 0 -37 -10 -68 -52z m96 30 c7 -7
12 -19 12 -27 0 -21 -158 -258 -177 -266 -21 -7 -63 21 -63 43 0 17 118 191
163 240 23 24 47 28 65 10z"/>
<path d="M2050 6005 c-328 -66 -584 -310 -666 -633 -32 -126 -33 -307 -4 -432
81 -338 376 -606 715 -648 l60 -7 3 -287 2 -287 27 -20 c32 -26 44 -26 73 -3
21 17 22 20 20 304 -1 313 -4 298 59 298 15 0 63 9 107 20 303 77 542 316 625
625 18 64 22 108 22 215 0 154 -19 243 -77 367 -98 205 -276 371 -484 449
-139 53 -335 69 -482 39z m395 -19 c95 -25 253 -108 330 -173 329 -276 408
-740 188 -1105 -56 -94 -172 -216 -258 -273 -86 -56 -203 -104 -298 -122 -45
-8 -93 -18 -107 -22 l-25 -6 -3 -288 -2 -287 -25 -16 c-23 -15 -27 -15 -50 0
l-25 16 0 283 c0 207 -3 286 -12 295 -7 7 -26 12 -43 12 -52 0 -185 38 -264
75 -199 95 -356 266 -430 469 -43 121 -54 197 -49 349 4 113 9 145 36 227 98
296 346 517 647 576 90 17 308 12 390 -10z"/>
<path d="M2095 5885 c-245 -46 -436 -193 -545 -419 -58 -120 -73 -196 -68
-346 4 -109 9 -136 36 -209 75 -201 194 -337 370 -426 77 -38 217 -79 254 -73
l23 3 0 378 0 377 -2 -375 -3 -375 -23 0 c-51 0 -158 34 -247 77 -180 87 -328
273 -380 479 -22 87 -26 226 -9 318 37 199 193 409 378 505 121 63 214 85 356
85 79 1 106 3 80 8 -60 10 -141 8 -220 -7z"/>
<path d="M2430 5857 c120 -36 214 -92 306 -182 132 -130 205 -280 224 -460 l9
-80 -4 85 c-11 236 -165 469 -387 586 -77 40 -171 74 -202 73 -12 0 13 -10 54
-22z"/>
<path d="M2053 5387 c-89 -160 -160 -293 -158 -295 4 -4 235 77 255 90 23 15
-12 5 -124 -37 -54 -19 -102 -34 -106 -33 -4 2 61 125 144 274 126 226 153
268 162 255 29 -40 295 -523 291 -527 -2 -2 -55 14 -117 36 -62 22 -117 37
-122 32 -4 -4 -7 -179 -5 -388 l2 -379 3 383 c1 210 4 382 6 382 2 0 61 -20
130 -45 70 -25 129 -45 131 -45 4 0 -10 25 -194 355 -68 121 -126 223 -130
227 -3 4 -79 -124 -168 -285z"/>
<path d="M2962 5075 c-3 -55 -37 -176 -68 -238 -109 -217 -290 -355 -541 -412
-62 -14 -64 -15 -17 -10 60 6 167 41 240 78 130 66 251 193 327 344 36 70 69
195 64 240 l-4 38 -1 -40z"/>
<path d="M1056 5804 c-20 -19 -21 -58 -2 -73 31 -26 249 -131 271 -131 41 0
64 35 49 75 -7 19 -254 145 -283 145 -11 0 -27 -7 -35 -16z m178 -57 c126 -65
148 -85 130 -114 -21 -33 -56 -25 -186 42 -106 55 -128 70 -128 89 0 28 18 46
45 46 11 -1 74 -29 139 -63z"/>
<path d="M3217 5754 c-135 -68 -159 -92 -137 -135 21 -39 51 -33 188 35 103
52 133 71 138 90 6 25 -10 66 -26 66 -4 0 -14 2 -22 4 -7 3 -71 -24 -141 -60z
m173 31 c29 -35 5 -58 -128 -124 -111 -54 -133 -61 -151 -52 -14 8 -21 21 -21
41 0 28 7 34 118 89 121 62 161 72 182 46z"/>
<path d="M3835 5560 c-1 -3 -48 -140 -103 -305 -55 -165 -104 -308 -107 -317
-6 -16 0 -18 58 -18 l65 0 22 64 21 64 93 7 c51 4 101 6 111 4 13 -3 25 -23
39 -67 l20 -62 63 0 63 0 -20 53 c-10 28 -60 169 -109 311 -50 142 -93 261
-95 264 -7 6 -117 8 -121 2z m145 -396 c0 -2 -35 -4 -78 -4 l-78 0 35 108 c19
59 36 114 38 122 3 11 83 -207 83 -226z"/>
<path d="M8470 5566 c0 -2 47 -88 105 -192 l105 -188 0 -133 0 -133 60 0 61 0
-2 138 -1 138 100 187 100 187 -62 0 -62 0 -62 -125 c-34 -68 -62 -129 -62
-135 0 -30 -21 3 -79 125 l-64 135 -68 0 c-38 0 -69 -2 -69 -4z"/>
<path d="M4200 5347 c0 -259 8 -296 79 -367 74 -74 155 -89 247 -46 28 13 65
41 82 62 54 65 62 111 62 351 l0 213 -60 0 -60 0 0 -216 c0 -182 -3 -220 -16
-244 -21 -34 -63 -60 -99 -60 -40 0 -92 36 -104 72 -7 18 -11 115 -11 239 l0
209 -60 0 -60 0 0 -213z"/>
<path d="M4788 5363 c-1 -109 -1 -253 0 -320 l4 -123 55 0 54 0 -3 220 c-2
121 -1 220 2 220 5 0 26 -48 110 -245 36 -87 39 -90 72 -93 29 -3 36 1 47 25
17 37 127 294 134 313 3 8 6 -85 6 -207 l1 -223 55 0 55 0 0 278 c0 152 -3
294 -6 315 l-7 37 -62 0 -63 0 -40 -99 c-23 -54 -59 -135 -81 -180 l-40 -83
-16 39 c-9 21 -43 102 -77 181 l-62 142 -67 0 -67 0 -4 -197z"/>
<path d="M5450 5504 l0 -56 87 3 c87 3 87 3 88 -21 1 -14 2 -134 3 -267 l2
-243 61 0 62 0 -5 265 -5 265 83 0 84 0 0 55 0 55 -230 0 -230 0 0 -56z"/>
<path d="M5999 5553 c-3 -51 3 -576 7 -600 6 -33 7 -33 65 -33 l59 0 0 135 0
135 28 0 c15 0 64 3 110 7 l82 6 0 -137 0 -136 66 0 67 0 -6 68 c-4 37 -7 178
-7 315 l0 247 -60 0 -60 0 0 -119 0 -119 -32 -5 c-18 -4 -70 -9 -115 -13 l-83
-7 0 132 0 131 -60 0 c-33 0 -60 -3 -61 -7z"/>
<path d="M6586 5277 c1 -155 2 -298 3 -317 l1 -35 60 3 60 4 -2 314 -3 314
-60 0 -60 0 1 -283z"/>
<path d="M6832 5288 c0 -150 2 -294 5 -320 l5 -48 59 0 59 0 0 115 0 115 33 0
c30 0 36 -7 97 -106 36 -59 70 -108 76 -111 6 -2 41 -3 77 -1 l66 3 -79 104
c-82 105 -90 121 -67 121 23 0 99 72 113 107 32 75 6 183 -57 236 -55 47 -97
57 -252 57 l-135 0 0 -272z m273 158 c36 -16 65 -59 65 -100 0 -14 -13 -40
-29 -58 -28 -31 -34 -33 -110 -38 l-81 -5 0 108 0 107 60 0 c33 0 76 -6 95
-14z"/>
<path d="M7392 5245 l2 -315 155 0 c151 0 158 1 206 28 102 56 151 161 143
311 -5 102 -33 166 -98 225 -67 60 -91 66 -260 66 l-150 0 2 -315z m275 194
c71 -27 112 -100 113 -199 0 -49 -6 -77 -22 -110 -36 -68 -65 -84 -164 -89
l-84 -3 0 206 0 206 64 0 c36 0 77 -5 93 -11z"/>
<path d="M8000 5240 l0 -320 201 5 201 6 2 50 1 49 -149 0 -148 0 6 23 c3 12
6 49 6 82 l0 60 121 2 122 2 0 48 0 48 -127 3 -126 3 0 77 0 77 145 -3 145 -4
0 56 0 56 -200 0 -200 0 0 -320z"/>
<path d="M9070 5240 l0 -321 205 3 205 3 0 53 0 52 -145 0 -145 0 0 79 0 79
93 7 c51 4 106 5 122 4 30 -4 30 -3 33 49 l3 53 -125 -3 -126 -3 0 80 0 80
140 -3 140 -4 0 56 0 56 -200 0 -200 0 0 -320z"/>
<path d="M3255 5212 c-32 -2 -65 -8 -72 -14 -21 -17 -16 -76 6 -88 11 -5 84
-10 165 -10 144 0 145 0 165 26 26 33 26 49 0 75 -21 21 -45 22 -264 11z m247
-14 c26 -22 29 -47 8 -68 -19 -19 -32 -20 -167 -18 -159 3 -173 8 -159 61 6
26 8 26 99 30 50 1 117 4 148 5 32 1 62 -3 71 -10z"/>
<path d="M892 5188 c-22 -29 -23 -57 -3 -77 20 -20 33 -21 190 -21 164 0 170
1 185 22 20 29 20 52 0 72 -13 13 -44 16 -188 16 -127 0 -176 -3 -184 -12z
m366 -10 c17 -17 15 -44 -4 -62 -13 -13 -44 -16 -178 -16 -170 0 -186 4 -186
45 0 41 16 45 190 45 116 0 170 -4 178 -12z"/>
<path d="M3090 4690 c-20 -20 -25 -47 -12 -66 4 -6 65 -41 136 -79 108 -57
133 -66 154 -59 14 5 28 18 32 29 16 43 -6 63 -139 130 -72 36 -135 65 -141
65 -5 0 -19 -9 -30 -20z m170 -57 c119 -62 130 -70 130 -96 0 -19 -7 -31 -23
-38 -20 -9 -41 -1 -149 56 -70 36 -129 73 -132 82 -7 17 18 63 35 63 5 0 68
-30 139 -67z"/>
<path d="M1170 4627 c-116 -58 -125 -64 -128 -93 -2 -20 4 -36 17 -48 24 -21
25 -21 203 63 114 53 133 74 108 120 -18 34 -65 25 -200 -42z m190 38 c28 -34
5 -59 -105 -108 -178 -81 -171 -79 -190 -61 -35 36 -16 56 113 122 128 64 161
73 182 47z"/>
<path d="M1600 4163 c-50 -71 -90 -136 -90 -149 0 -30 34 -54 65 -45 29 7 195
235 195 267 0 11 -8 28 -18 37 -39 36 -57 23 -152 -110z m148 105 c23 -23 11
-51 -74 -169 -75 -105 -89 -119 -114 -119 -23 0 -31 5 -36 25 -5 20 8 45 66
127 108 153 126 168 158 136z"/>
<path d="M2686 4268 c-9 -12 -16 -30 -16 -38 0 -9 41 -71 91 -138 85 -114 93
-122 125 -122 28 0 36 5 45 27 5 14 8 32 5 40 -3 7 -46 67 -96 133 -97 129
-122 144 -154 98z m140 -95 c99 -134 104 -142 93 -171 -7 -18 -15 -23 -36 -20
-22 2 -46 26 -115 118 -48 63 -88 123 -88 132 0 22 27 48 49 48 12 0 48 -40
97 -107z"/>
</g>
</svg>
